<svg width="1024" height="1024" viewBox="0 0 1024 1024" fill="none" xmlns="http://www.w3.org/2000/svg">
<path d="M24 19.0246H19C18.4696 19.0246 17.9609 19.2353 17.5858 19.6104C17.2107 19.9854 17 20.4941 17 21.0246V32.0246C17 32.555 17.2107 33.0637 17.5858 33.4388C17.9609 33.8139 18.4696 34.0246 19 34.0246H30C30.5304 34.0246 31.0391 33.8139 31.4142 33.4388C31.7893 33.0637 32 32.555 32 32.0246V27.0246M30.586 17.6106C30.7705 17.4196 30.9912 17.2672 31.2352 17.1624C31.4792 17.0576 31.7416 17.0024 32.0072 17.0001C32.2728 16.9978 32.5361 17.0484 32.7819 17.1489C33.0277 17.2495 33.251 17.398 33.4388 17.5858C33.6266 17.7736 33.7751 17.9969 33.8756 18.2427C33.9762 18.4885 34.0268 18.7518 34.0245 19.0174C34.0222 19.2829 33.967 19.5454 33.8622 19.7894C33.7574 20.0334 33.605 20.2541 33.414 20.4386L24.828 29.0246H22V26.1966L30.586 17.6106Z" stroke="black" stroke-linecap="round" stroke-linejoin="round"/>
<path d="M98.8468 17.586H91.2564L82.0429 26.7993C81.4336 27.4088 81.4336 28.4061 82.0429 29.0154L88.9844 35.9569C89.5939 36.5663 90.591 36.5663 91.2006 35.9568L100.414 26.7435L100.414 19.153C100.414 18.2911 99.7088 17.586 98.8468 17.586Z" stroke="black" stroke-miterlimit="10" stroke-linecap="round" stroke-linejoin="round"/>
<path d="M96.7227 23.0524C96.2325 23.5426 95.4377 23.5426 94.9475 23.0524C94.4573 22.5622 94.4573 21.7674 94.9475 21.2774C95.4377 20.7871 96.2325 20.787 96.7227 21.2774C97.2129 21.7674 97.2129 22.5622 96.7227 23.0524Z" stroke="black" stroke-miterlimit="10" stroke-linecap="round" stroke-linejoin="round"/>
<g clip-path="url(#clip0_813_518)">
<path d="M161.25 37H148.75C147.601 37 146.667 36.065 146.667 34.9167V24.6392C146.667 24.1917 146.815 23.7475 147.083 23.3892L149.25 20.5C149.328 20.395 149.453 20.3334 149.583 20.3334H160.413H160.417C160.502 20.3334 160.586 20.3584 160.659 20.4109C160.665 20.415 160.672 20.42 160.677 20.4242C160.707 20.4484 160.733 20.4767 160.756 20.5075L162.917 23.3892C163.185 23.7475 163.333 24.1909 163.333 24.6392V34.9167C163.333 36.065 162.399 37 161.25 37ZM157.916 36.1667H161.25C161.939 36.1667 162.5 35.6059 162.5 34.9167V24.6392C162.5 24.3709 162.412 24.1042 162.249 23.89L160.417 21.4442L158.584 23.8884C158.422 24.1042 158.333 24.37 158.333 24.6392V34.9167C158.333 35.3859 158.178 35.8184 157.916 36.1667ZM149.792 21.1667L147.751 23.8892C147.588 24.1042 147.5 24.37 147.5 24.6392V34.9167C147.5 35.6059 148.061 36.1667 148.75 36.1667H156.25C156.939 36.1667 157.5 35.6059 157.5 34.9167V24.6392C157.5 24.1917 157.648 23.7475 157.917 23.3892L159.583 21.1667H149.792Z" fill="black"/>
<path d="M160.417 21.1667C160.187 21.1667 160 20.98 160 20.75V18.25C160 18.02 159.813 17.8333 159.583 17.8333H150.417C150.188 17.8333 150 18.02 150 18.25V20.75C150 20.98 149.813 21.1667 149.583 21.1667C149.353 21.1667 149.167 20.98 149.167 20.75V18.25C149.167 17.5608 149.728 17 150.417 17H159.583C160.273 17 160.833 17.5608 160.833 18.25V20.75C160.833 20.98 160.647 21.1667 160.417 21.1667Z" fill="black"/>
<path d="M153.75 28.6666H151.25C150.561 28.6666 150 28.1058 150 27.4166V24.6391C150 24.1916 150.148 23.7475 150.417 23.3891L152.583 20.5C152.723 20.3158 152.984 20.2791 153.167 20.4166C153.351 20.555 153.388 20.8158 153.251 21L151.084 23.8891C150.922 24.1041 150.833 24.37 150.833 24.6391V27.4166C150.833 27.6466 151.021 27.8333 151.25 27.8333H153.75C153.979 27.8333 154.167 27.6466 154.167 27.4166V24.6391C154.167 24.1916 154.315 23.7475 154.583 23.3891L156.75 20.5C156.89 20.3158 157.151 20.2791 157.333 20.4166C157.518 20.555 157.555 20.8158 157.418 21L155.251 23.8891C155.088 24.1041 155 24.37 155 24.6391V27.4166C155 28.1058 154.439 28.6666 153.75 28.6666Z" fill="black"/>
<path d="M160.417 26.1667C160.187 26.1667 160 25.98 160 25.75V20.75C160 20.52 160.187 20.3334 160.417 20.3334C160.647 20.3334 160.833 20.52 160.833 20.75V25.75C160.833 25.98 160.647 26.1667 160.417 26.1667Z" fill="black"/>
</g>
<defs>
<clipPath id="clip0_813_518">
<rect width="20" height="20" fill="white" transform="translate(145 17)"/>
</clipPath>
</defs>
</svg>
